# xmcd
#
# Track frame offsets:
#	150
#	8330
#	22290
#	44337
#	74397
#	86467
#	103372
#	122905
#	144195
#	157835
#	173545
#	207172
#	224837
#	247430
#	277392
#
# Disc length: 3906 seconds
#
# Revision: 0
# Processed by: cddbd v1.5PL3 Copyright (c) Steve Scherf et al.
# Submitted via: dBpowerAMP V4.0
#
DISCID=e20f400f
DTITLE=Corey Harris - Mississippi to Mali
DYEAR=2003
DGENRE=Blues
TTITLE0=Coahoma
TTITLE1=Big Road Blues
TTITLE2=Special Rider Blues
TTITLE3=Tamalah
TTITLE4=Back Atcha
TTITLE5=Rokie
TTITLE6=La Chanson Des Bozos
TTITLE7=Mr. Turner
TTITLE8=Cypress Grove
TTITLE9=Station Blues
TTITLE10=44 Blues
TTITLE11=Njarka
TTITLE12=Charlene
TTITLE13=Catfish Blues
TTITLE14=Dark Was The Night, Cold Was The Ground
EXTD=
EXTT0=
EXTT1=
EXTT2=
EXTT3=
EXTT4=
EXTT5=
EXTT6=
EXTT7=
EXTT8=
EXTT9=
EXTT10=
EXTT11=
EXTT12=
EXTT13=
EXTT14=
PLAYORDER=
